<svg width="300" height="301" viewBox="0 0 300 301" fill="none" xmlns="http://www.w3.org/2000/svg">
<rect width="300" height="301" fill="#E5E5E5"/>
<rect x="2" y="53" width="296" height="246" rx="11" stroke="black" stroke-width="4"/>
<rect x="2" y="2" width="296" height="296" rx="11" stroke="black" stroke-width="4"/>
<path d="M138.797 21.3945H136.055V29H134.936V21.3945H132.199V20.4688H138.797V21.3945ZM141.363 21.125V22.6602H142.547V23.498H141.363V27.4297C141.363 27.6836 141.416 27.875 141.521 28.0039C141.627 28.1289 141.807 28.1914 142.061 28.1914C142.186 28.1914 142.357 28.168 142.576 28.1211V29C142.291 29.0781 142.014 29.1172 141.744 29.1172C141.26 29.1172 140.895 28.9707 140.648 28.6777C140.402 28.3848 140.279 27.9688 140.279 27.4297V23.498H139.125V22.6602H140.279V21.125H141.363ZM144.996 29H143.912V22.6602H144.996V29ZM143.824 20.9785C143.824 20.8027 143.877 20.6543 143.982 20.5332C144.092 20.4121 144.252 20.3516 144.463 20.3516C144.674 20.3516 144.834 20.4121 144.943 20.5332C145.053 20.6543 145.107 20.8027 145.107 20.9785C145.107 21.1543 145.053 21.3008 144.943 21.418C144.834 21.5352 144.674 21.5938 144.463 21.5938C144.252 21.5938 144.092 21.5352 143.982 21.418C143.877 21.3008 143.824 21.1543 143.824 20.9785ZM149.367 29.1172C148.508 29.1172 147.809 28.8359 147.27 28.2734C146.73 27.707 146.461 26.9512 146.461 26.0059V25.8066C146.461 25.1777 146.58 24.6172 146.818 24.125C147.061 23.6289 147.396 23.2422 147.826 22.9648C148.26 22.6836 148.729 22.543 149.232 22.543C150.057 22.543 150.697 22.8145 151.154 23.3574C151.611 23.9004 151.84 24.6777 151.84 25.6895V26.1406H147.545C147.561 26.7656 147.742 27.2715 148.09 27.6582C148.441 28.041 148.887 28.2324 149.426 28.2324C149.809 28.2324 150.133 28.1543 150.398 27.998C150.664 27.8418 150.896 27.6348 151.096 27.377L151.758 27.8926C151.227 28.709 150.43 29.1172 149.367 29.1172ZM149.232 23.4336C148.795 23.4336 148.428 23.5938 148.131 23.9141C147.834 24.2305 147.65 24.6758 147.58 25.25H150.756V25.168C150.725 24.6172 150.576 24.1914 150.311 23.8906C150.045 23.5859 149.686 23.4336 149.232 23.4336ZM154.277 29H153.193V20H154.277V29ZM158.648 29.1172C157.789 29.1172 157.09 28.8359 156.551 28.2734C156.012 27.707 155.742 26.9512 155.742 26.0059V25.8066C155.742 25.1777 155.861 24.6172 156.1 24.125C156.342 23.6289 156.678 23.2422 157.107 22.9648C157.541 22.6836 158.01 22.543 158.514 22.543C159.338 22.543 159.979 22.8145 160.436 23.3574C160.893 23.9004 161.121 24.6777 161.121 25.6895V26.1406H156.826C156.842 26.7656 157.023 27.2715 157.371 27.6582C157.723 28.041 158.168 28.2324 158.707 28.2324C159.09 28.2324 159.414 28.1543 159.68 27.998C159.945 27.8418 160.178 27.6348 160.377 27.377L161.039 27.8926C160.508 28.709 159.711 29.1172 158.648 29.1172ZM158.514 23.4336C158.076 23.4336 157.709 23.5938 157.412 23.9141C157.115 24.2305 156.932 24.6758 156.861 25.25H160.037V25.168C160.006 24.6172 159.857 24.1914 159.592 23.8906C159.326 23.5859 158.967 23.4336 158.514 23.4336ZM166.295 29C166.232 28.875 166.182 28.6523 166.143 28.332C165.639 28.8555 165.037 29.1172 164.338 29.1172C163.713 29.1172 163.199 28.9414 162.797 28.5898C162.398 28.2344 162.199 27.7852 162.199 27.2422C162.199 26.582 162.449 26.0703 162.949 25.707C163.453 25.3398 164.16 25.1562 165.07 25.1562H166.125V24.6582C166.125 24.2793 166.012 23.9785 165.785 23.7559C165.559 23.5293 165.225 23.416 164.783 23.416C164.396 23.416 164.072 23.5137 163.811 23.709C163.549 23.9043 163.418 24.1406 163.418 24.418H162.328C162.328 24.1016 162.439 23.7969 162.662 23.5039C162.889 23.207 163.193 22.9727 163.576 22.8008C163.963 22.6289 164.387 22.543 164.848 22.543C165.578 22.543 166.15 22.7266 166.564 23.0938C166.979 23.457 167.193 23.959 167.209 24.5996V27.5176C167.209 28.0996 167.283 28.5625 167.432 28.9062V29H166.295ZM164.496 28.1738C164.836 28.1738 165.158 28.0859 165.463 27.9102C165.768 27.7344 165.988 27.5059 166.125 27.2246V25.9238H165.275C163.947 25.9238 163.283 26.3125 163.283 27.0898C163.283 27.4297 163.396 27.6953 163.623 27.8867C163.85 28.0781 164.141 28.1738 164.496 28.1738Z" fill="black"/>
<path d="M20.9902 98V89.4688H23.3984C24.1406 89.4688 24.7969 89.6328 25.3672 89.9609C25.9375 90.2891 26.377 90.7559 26.6855 91.3613C26.998 91.9668 27.1562 92.6621 27.1602 93.4473V93.9922C27.1602 94.7969 27.0039 95.502 26.6914 96.1074C26.3828 96.7129 25.9395 97.1777 25.3613 97.502C24.7871 97.8262 24.1172 97.9922 23.3516 98H20.9902ZM22.1152 90.3945V97.0801H23.2988C24.166 97.0801 24.8398 96.8105 25.3203 96.2715C25.8047 95.7324 26.0469 94.9648 26.0469 93.9688V93.4707C26.0469 92.502 25.8184 91.75 25.3613 91.2148C24.9082 90.6758 24.2637 90.4023 23.4277 90.3945H22.1152ZM32.6094 97.373C32.1875 97.8691 31.5684 98.1172 30.752 98.1172C30.0762 98.1172 29.5605 97.9219 29.2051 97.5312C28.8535 97.1367 28.6758 96.5547 28.6719 95.7852V91.6602H29.7559V95.7559C29.7559 96.7168 30.1465 97.1973 30.9277 97.1973C31.7559 97.1973 32.3066 96.8887 32.5801 96.2715V91.6602H33.6641V98H32.6328L32.6094 97.373ZM38.3809 92.6328C38.2168 92.6055 38.0391 92.5918 37.8477 92.5918C37.1367 92.5918 36.6543 92.8945 36.4004 93.5V98H35.3164V91.6602H36.3711L36.3887 92.3926C36.7441 91.8262 37.248 91.543 37.9004 91.543C38.1113 91.543 38.2715 91.5703 38.3809 91.625V92.6328ZM43.0625 98C43 97.875 42.9492 97.6523 42.9102 97.332C42.4062 97.8555 41.8047 98.1172 41.1055 98.1172C40.4805 98.1172 39.9668 97.9414 39.5645 97.5898C39.166 97.2344 38.9668 96.7852 38.9668 96.2422C38.9668 95.582 39.2168 95.0703 39.7168 94.707C40.2207 94.3398 40.9277 94.1562 41.8379 94.1562H42.8926V93.6582C42.8926 93.2793 42.7793 92.9785 42.5527 92.7559C42.3262 92.5293 41.9922 92.416 41.5508 92.416C41.1641 92.416 40.8398 92.5137 40.5781 92.709C40.3164 92.9043 40.1855 93.1406 40.1855 93.418H39.0957C39.0957 93.1016 39.207 92.7969 39.4297 92.5039C39.6562 92.207 39.9609 91.9727 40.3438 91.8008C40.7305 91.6289 41.1543 91.543 41.6152 91.543C42.3457 91.543 42.918 91.7266 43.332 92.0938C43.7461 92.457 43.9609 92.959 43.9766 93.5996V96.5176C43.9766 97.0996 44.0508 97.5625 44.1992 97.9062V98H43.0625ZM41.2637 97.1738C41.6035 97.1738 41.9258 97.0859 42.2305 96.9102C42.5352 96.7344 42.7559 96.5059 42.8926 96.2246V94.9238H42.043C40.7148 94.9238 40.0508 95.3125 40.0508 96.0898C40.0508 96.4297 40.1641 96.6953 40.3906 96.8867C40.6172 97.0781 40.9082 97.1738 41.2637 97.1738ZM48.2188 97.2324C48.6055 97.2324 48.9434 97.1152 49.2324 96.8809C49.5215 96.6465 49.6816 96.3535 49.7129 96.002H50.7383C50.7188 96.3652 50.5938 96.7109 50.3633 97.0391C50.1328 97.3672 49.8242 97.6289 49.4375 97.8242C49.0547 98.0195 48.6484 98.1172 48.2188 98.1172C47.3555 98.1172 46.668 97.8301 46.1562 97.2559C45.6484 96.6777 45.3945 95.8887 45.3945 94.8887V94.707C45.3945 94.0898 45.5078 93.541 45.7344 93.0605C45.9609 92.5801 46.2852 92.207 46.707 91.9414C47.1328 91.6758 47.6348 91.543 48.2129 91.543C48.9238 91.543 49.5137 91.7559 49.9824 92.1816C50.4551 92.6074 50.707 93.1602 50.7383 93.8398H49.7129C49.6816 93.4297 49.5254 93.0938 49.2441 92.832C48.9668 92.5664 48.623 92.4336 48.2129 92.4336C47.6621 92.4336 47.2344 92.6328 46.9297 93.0312C46.6289 93.4258 46.4785 93.998 46.4785 94.748V94.9531C46.4785 95.6836 46.6289 96.2461 46.9297 96.6406C47.2305 97.0352 47.6602 97.2324 48.2188 97.2324ZM55.8711 98C55.8086 97.875 55.7578 97.6523 55.7188 97.332C55.2148 97.8555 54.6133 98.1172 53.9141 98.1172C53.2891 98.1172 52.7754 97.9414 52.373 97.5898C51.9746 97.2344 51.7754 96.7852 51.7754 96.2422C51.7754 95.582 52.0254 95.0703 52.5254 94.707C53.0293 94.3398 53.7363 94.1562 54.6465 94.1562H55.7012V93.6582C55.7012 93.2793 55.5879 92.9785 55.3613 92.7559C55.1348 92.5293 54.8008 92.416 54.3594 92.416C53.9727 92.416 53.6484 92.5137 53.3867 92.709C53.125 92.9043 52.9941 93.1406 52.9941 93.418H51.9043C51.9043 93.1016 52.0156 92.7969 52.2383 92.5039C52.4648 92.207 52.7695 91.9727 53.1523 91.8008C53.5391 91.6289 53.9629 91.543 54.4238 91.543C55.1543 91.543 55.7266 91.7266 56.1406 92.0938C56.5547 92.457 56.7695 92.959 56.7852 93.5996V96.5176C56.7852 97.0996 56.8594 97.5625 57.0078 97.9062V98H55.8711ZM54.0723 97.1738C54.4121 97.1738 54.7344 97.0859 55.0391 96.9102C55.3438 96.7344 55.5645 96.5059 55.7012 96.2246V94.9238H54.8516C53.5234 94.9238 52.8594 95.3125 52.8594 96.0898C52.8594 96.4297 52.9727 96.6953 53.1992 96.8867C53.4258 97.0781 53.7168 97.1738 54.0723 97.1738ZM63.8398 94.9004C63.8398 95.8652 63.6191 96.6426 63.1777 97.2324C62.7363 97.8223 62.1387 98.1172 61.3848 98.1172C60.6152 98.1172 60.0098 97.873 59.5684 97.3848V100.438H58.4844V91.6602H59.4746L59.5273 92.3633C59.9688 91.8164 60.582 91.543 61.3672 91.543C62.1289 91.543 62.7305 91.8301 63.1719 92.4043C63.6172 92.9785 63.8398 93.7773 63.8398 94.8008V94.9004ZM62.7559 94.7773C62.7559 94.0625 62.6035 93.498 62.2988 93.084C61.9941 92.6699 61.5762 92.4629 61.0449 92.4629C60.3887 92.4629 59.8965 92.7539 59.5684 93.3359V96.3652C59.8926 96.9434 60.3887 97.2324 61.0566 97.2324C61.5762 97.2324 61.9883 97.0273 62.293 96.6172C62.6016 96.2031 62.7559 95.5898 62.7559 94.7773Z" fill="black"/>
<g filter="url(#filter0_d)">
<path d="M20.9902 163V154.469H23.3984C24.1406 154.469 24.7969 154.633 25.3672 154.961C25.9375 155.289 26.377 155.756 26.6855 156.361C26.998 156.967 27.1562 157.662 27.1602 158.447V158.992C27.1602 159.797 27.0039 160.502 26.6914 161.107C26.3828 161.713 25.9395 162.178 25.3613 162.502C24.7871 162.826 24.1172 162.992 23.3516 163H20.9902ZM22.1152 155.395V162.08H23.2988C24.166 162.08 24.8398 161.811 25.3203 161.271C25.8047 160.732 26.0469 159.965 26.0469 158.969V158.471C26.0469 157.502 25.8184 156.75 25.3613 156.215C24.9082 155.676 24.2637 155.402 23.4277 155.395H22.1152ZM31.3262 163.117C30.4668 163.117 29.7676 162.836 29.2285 162.273C28.6895 161.707 28.4199 160.951 28.4199 160.006V159.807C28.4199 159.178 28.5391 158.617 28.7773 158.125C29.0195 157.629 29.3555 157.242 29.7852 156.965C30.2188 156.684 30.6875 156.543 31.1914 156.543C32.0156 156.543 32.6562 156.814 33.1133 157.357C33.5703 157.9 33.7988 158.678 33.7988 159.689V160.141H29.5039C29.5195 160.766 29.7012 161.271 30.0488 161.658C30.4004 162.041 30.8457 162.232 31.3848 162.232C31.7676 162.232 32.0918 162.154 32.3574 161.998C32.623 161.842 32.8555 161.635 33.0547 161.377L33.7168 161.893C33.1855 162.709 32.3887 163.117 31.3262 163.117ZM31.1914 157.434C30.7539 157.434 30.3867 157.594 30.0898 157.914C29.793 158.23 29.6094 158.676 29.5391 159.25H32.7148V159.168C32.6836 158.617 32.5352 158.191 32.2695 157.891C32.0039 157.586 31.6445 157.434 31.1914 157.434ZM38.9727 163C38.9102 162.875 38.8594 162.652 38.8203 162.332C38.3164 162.855 37.7148 163.117 37.0156 163.117C36.3906 163.117 35.877 162.941 35.4746 162.59C35.0762 162.234 34.877 161.785 34.877 161.242C34.877 160.582 35.127 160.07 35.627 159.707C36.1309 159.34 36.8379 159.156 37.748 159.156H38.8027V158.658C38.8027 158.279 38.6895 157.979 38.4629 157.756C38.2363 157.529 37.9023 157.416 37.4609 157.416C37.0742 157.416 36.75 157.514 36.4883 157.709C36.2266 157.904 36.0957 158.141 36.0957 158.418H35.0059C35.0059 158.102 35.1172 157.797 35.3398 157.504C35.5664 157.207 35.8711 156.973 36.2539 156.801C36.6406 156.629 37.0645 156.543 37.5254 156.543C38.2559 156.543 38.8281 156.727 39.2422 157.094C39.6562 157.457 39.8711 157.959 39.8867 158.6V161.518C39.8867 162.1 39.9609 162.562 40.1094 162.906V163H38.9727ZM37.1738 162.174C37.5137 162.174 37.8359 162.086 38.1406 161.91C38.4453 161.734 38.666 161.506 38.8027 161.225V159.924H37.9531C36.625 159.924 35.9609 160.312 35.9609 161.09C35.9609 161.43 36.0742 161.695 36.3008 161.887C36.5273 162.078 36.8184 162.174 37.1738 162.174ZM41.3223 159.777C41.3223 158.805 41.5527 158.023 42.0137 157.434C42.4746 156.84 43.0781 156.543 43.8242 156.543C44.5664 156.543 45.1543 156.797 45.5879 157.305V154H46.6719V163H45.6758L45.623 162.32C45.1895 162.852 44.5859 163.117 43.8125 163.117C43.0781 163.117 42.4785 162.816 42.0137 162.215C41.5527 161.613 41.3223 160.828 41.3223 159.859V159.777ZM42.4062 159.9C42.4062 160.619 42.5547 161.182 42.8516 161.588C43.1484 161.994 43.5586 162.197 44.082 162.197C44.7695 162.197 45.2715 161.889 45.5879 161.271V158.359C45.2637 157.762 44.7656 157.463 44.0938 157.463C43.5625 157.463 43.1484 157.668 42.8516 158.078C42.5547 158.488 42.4062 159.096 42.4062 159.9ZM49.5371 163H48.4531V154H49.5371V163ZM52.4551 163H51.3711V156.66H52.4551V163ZM51.2832 154.979C51.2832 154.803 51.3359 154.654 51.4414 154.533C51.5508 154.412 51.7109 154.352 51.9219 154.352C52.1328 154.352 52.293 154.412 52.4023 154.533C52.5117 154.654 52.5664 154.803 52.5664 154.979C52.5664 155.154 52.5117 155.301 52.4023 155.418C52.293 155.535 52.1328 155.594 51.9219 155.594C51.7109 155.594 51.5508 155.535 51.4414 155.418C51.3359 155.301 51.2832 155.154 51.2832 154.979ZM55.2207 156.66L55.2559 157.457C55.7402 156.848 56.373 156.543 57.1543 156.543C58.4941 156.543 59.1699 157.299 59.1816 158.811V163H58.0977V158.805C58.0938 158.348 57.9883 158.01 57.7812 157.791C57.5781 157.572 57.2598 157.463 56.8262 157.463C56.4746 157.463 56.166 157.557 55.9004 157.744C55.6348 157.932 55.4277 158.178 55.2793 158.482V163H54.1953V156.66H55.2207ZM63.4473 163.117C62.5879 163.117 61.8887 162.836 61.3496 162.273C60.8105 161.707 60.541 160.951 60.541 160.006V159.807C60.541 159.178 60.6602 158.617 60.8984 158.125C61.1406 157.629 61.4766 157.242 61.9062 156.965C62.3398 156.684 62.8086 156.543 63.3125 156.543C64.1367 156.543 64.7773 156.814 65.2344 157.357C65.6914 157.9 65.9199 158.678 65.9199 159.689V160.141H61.625C61.6406 160.766 61.8223 161.271 62.1699 161.658C62.5215 162.041 62.9668 162.232 63.5059 162.232C63.8887 162.232 64.2129 162.154 64.4785 161.998C64.7441 161.842 64.9766 161.635 65.1758 161.377L65.8379 161.893C65.3066 162.709 64.5098 163.117 63.4473 163.117ZM63.3125 157.434C62.875 157.434 62.5078 157.594 62.2109 157.914C61.9141 158.23 61.7305 158.676 61.6602 159.25H64.8359V159.168C64.8047 158.617 64.6562 158.191 64.3906 157.891C64.125 157.586 63.7656 157.434 63.3125 157.434Z" fill="black"/>
</g>
<defs>
<filter id="filter0_d" x="16.9902" y="154" width="52.9297" height="17.1172" filterUnits="userSpaceOnUse" color-interpolation-filters="sRGB">
<feFlood flood-opacity="0" result="BackgroundImageFix"/>
<feColorMatrix in="SourceAlpha" type="matrix" values="0 0 0 0 0 0 0 0 0 0 0 0 0 0 0 0 0 0 127 0"/>
<feOffset dy="4"/>
<feGaussianBlur stdDeviation="2"/>
<feColorMatrix type="matrix" values="0 0 0 0 0 0 0 0 0 0 0 0 0 0 0 0 0 0 0.25 0"/>
<feBlend mode="normal" in2="BackgroundImageFix" result="effect1_dropShadow"/>
<feBlend mode="normal" in="SourceGraphic" in2="effect1_dropShadow" result="shape"/>
</filter>
</defs>
</svg>
